{"title":"Margarethe von Trotta - I am the Other Woman (2006) DVDRip x264","uid":8638668,"size":1470385110,"categoryP":"video","categoryS":"movies","magnet":"?xt=urn:btih:95ecc05606df9ffa6fb7aabd5062a1dce35971d0&amp;dn=Margarethe+von+Trotta+-+I+am+the+Other+Woman+%282006%29+DVDRip+x264&amp;tr=udp%3A%2F%2Ftracker.openbittorrent.com%3A80&amp;tr=udp%3A%2F%2Fopen.demonii.com%3A1337&amp;tr=udp%3A%2F%2Ftracker.coppersurfer.tk%3A6969&amp;tr=udp%3A%2F%2Fexodus.desync.com%3A6969","seeders":5,"leechers":2,"uploader":"rpessoa","files":1,"time":1372819800,"description":"Let's not demand that Frau Von Trotta maintain the earnestness of her best known output. I enjoy a bit of skin and outrageousness as much as anyone. For a while there I thought this was going to be a good night at the movies. Katja Reimann flings herself into her multiple characters with considerable energy and occasionally minimal clothing (even if that looks like a butt double.) It's fun to watch that. The 'scope production values are handsome too.\n &lt;a href=&quot;\nhttp://www.imdb.com/title/tt0484434/&quot; rel=&quot;nofollow&quot; target=&quot;_NEW&quot;&gt;\nhttp://www.imdb.com/title/tt0484434/&lt;/a&gt;\n\nGeneral\nUnique ID                                : 221708298368420505062224741837650981008 (0xA6CB770F227F7FE5988814E98F32F090)\nComplete name                            : Ich.bin.die.andere.2006.DVDRip.x264.mkv\nFormat                                   : Matroska\nFormat version                           : Version 4 / Version 2\nFile size                                : 1.37 GiB\nDuration                                 : 1h 40mn\nOverall bit rate                         : 1 958 Kbps\nEncoded date                             : UTC 2010-02-22 21:41:31\nWriting application                      : mkvmerge v5.9.0 ('On The Loose') built on Dec  9 2012 15:37:01\nWriting library                          : libebml v1.3.0 + libmatroska v1.4.0\n\nVideo\nID                                       : 1\nFormat                                   : AVC\nFormat/Info                              : Advanced Video Codec\nFormat profile                           : &lt;a class=&quot;__cf_email__&quot; href=&quot;/cdn-cgi/l/email-protection&quot; data-cfemail=&quot;652d0c020d2529564b54&quot;&gt;[email&amp;#160;protected]&lt;/a&gt;&lt;script cf-hash='f9e31' type=&quot;text/javascript&quot;&gt;\n/* &lt;![CDATA[ */!function(){try{var t=&quot;currentScript&quot;in document?document.currentScript:function(){for(var t=document.getElementsByTagName(&quot;script&quot;),e=t.length;e--;)if(t[e].getAttribute(&quot;cf-hash&quot;))return t[e]}();if(t&amp;&amp;t.previousSibling){var e,r,n,i,c=t.previousSibling,a=c.getAttribute(&quot;data-cfemail&quot;);if(a){for(e=&quot;&quot;,r=parseInt(a.substr(0,2),16),n=2;a.length-n;n+=2)i=parseInt(a.substr(n,2),16)^r,e+=String.fromCharCode(i);e=document.createTextNode(e),c.parentNode.replaceChild(e,c)}}}catch(u){}}();/* ]]&gt; */&lt;/script&gt;\nFormat settings, CABAC                   : Yes\nFormat settings, ReFrames                : 11 frames\nCodec ID                                 : V_MPEG4/ISO/AVC\nDuration                                 : 1h 40mn\nBit rate                                 : 1 727 Kbps\nWidth                                    : 716 pixels\nHeight                                   : 432 pixels\nDisplay aspect ratio                     : 2.35:1\nOriginal display aspect ratio            : 2.35:1\nFrame rate                               : 25.000 fps\nColor space                              : YUV\nChroma subsampling                       : 4:2:0\nBit depth                                : 8 bits\nScan type                                : Progressive\nBits/(Pixel*Frame)                       : 0.223\nStream size                              : 1.21 GiB (88%)\nWriting library                          : x264 core 129 r2245 bc13772\nEncoding settings                        : cabac=1 / ref=11 / deblock=1:-3:-3 / analyse=0x3:0x133 / me=umh / subme=11 / psy=1 / psy_rd=1.00:0.05 / mixed_ref=1 / me_range=48 / chroma_me=1 / trellis=2 / 8x8dct=1 / cqm=0 / deadzone=21,11 / fast_pskip=0 / chroma_qp_offset=-3 / threads=12 / lookahead_threads=2 / sliced_threads=0 / nr=0 / decimate=1 / interlaced=0 / bluray_compat=0 / constrained_intra=0 / bframes=12 / b_pyramid=2 / b_adapt=2 / b_bias=0 / direct=3 / weightb=1 / open_gop=0 / weightp=2 / keyint=250 / keyint_min=25 / scenecut=40 / intra_refresh=0 / rc_lookahead=60 / rc=crf / mbtree=1 / crf=14.0 / qcomp=0.60 / qpmin=0 / qpmax=69 / qpstep=4 / ip_ratio=1.40 / aq=1:0.80\nLanguage                                 : English\nDefault                                  : Yes\nForced                                   : No\n\nAudio\nID                                       : 2\nFormat                                   : AC-3\nFormat/Info                              : Audio Coding 3\nMode extension                           : CM (complete main)\nCodec ID                                 : A_AC3\nDuration                                 : 1h 40mn\nBit rate mode                            : Constant\nBit rate                                 : 192 Kbps\nChannel(s)                               : 2 channels\nChannel positions                        : Front: L R\nSampling rate                            : 48.0 KHz\nBit depth                                : 16 bits\nCompression mode                         : Lossy\nStream size                              : 138 MiB (10%)\nLanguage                                 : German\nDefault                                  : Yes\nForced                                   : No\n\nSUBS: English, Swedish, Spanish, Portuguese, Norwegian, Danish, Finnish\n\nMenu\n00:00:00.000                             : en:Chapter 1\n00:05:27.760                             : en:Chapter 2\n00:10:18.000                             : en:Chapter 3\n00:16:48.600                             : en:Chapter 4\n00:21:10.600                             : en:Chapter 5\n00:25:34.960                             : en:Chapter 6\n00:30:35.200                             : en:Chapter 7\n00:34:49.400                             : en:Chapter 8\n00:38:37.920                             : en:Chapter 9\n00:46:26.360                             : en:Chapter 10\n00:51:31.480                             : en:Chapter 11\n00:55:54.000                             : en:Chapter 12\n00:59:55.480                             : en:Chapter 13\n01:09:27.520                             : en:Chapter 14\n01:13:08.120                             : en:Chapter 15\n01:17:30.320                             : en:Chapter 16\n01:21:57.000                             : en:Chapter 17\n01:24:16.200                             : en:Chapter 18\n01:28:12.080                             : en:Chapter 19\n01:36:03.400                             : en:Chapter 20\n\nMy rip.","torrent":{"xt":"urn:btih:95ecc05606df9ffa6fb7aabd5062a1dce35971d0","amp;dn":"Margarethe+von+Trotta+-+I+am+the+Other+Woman+%282006%29+DVDRip+x264","amp;tr":["udp%3A%2F%2Ftracker.openbittorrent.com%3A80","udp%3A%2F%2Fopen.demonii.com%3A1337","udp%3A%2F%2Ftracker.coppersurfer.tk%3A6969","udp%3A%2F%2Fexodus.desync.com%3A6969"],"infoHash":"95ecc05606df9ffa6fb7aabd5062a1dce35971d0","infoHashBuffer":{"type":"Buffer","data":[149,236,192,86,6,223,159,250,111,183,170,189,80,98,161,220,227,89,113,208]},"announce":[],"urlList":[]}}